<svg width="135" height="35" viewBox="0 0 135 35" fill="none" xmlns="http://www.w3.org/2000/svg">
<path d="M15.9498 7.1499V2.8999H2.5498V32.0999H15.9498V27.8499C13.2048 27.8499 10.5722 26.7594 8.63124 24.8184C6.69024 22.8774 5.5998 20.2449 5.5998 17.4999C5.5998 14.7549 6.69024 12.1223 8.63124 10.1814C10.5722 8.24035 13.2048 7.1499 15.9498 7.1499Z" fill="#AAAAAA"/>
<path d="M15.9502 7.1499V27.8499C18.6952 27.8499 21.3278 26.7594 23.2688 24.8184C25.2098 22.8774 26.3002 20.2449 26.3002 17.4999C26.3002 14.7549 25.2098 12.1223 23.2688 10.1814C21.3278 8.24035 18.6952 7.1499 15.9502 7.1499Z" fill="#AAAAAA"/>
<path d="M33.8203 9.75H36.8203V24.2H33.8203V9.75Z" fill="#AAAAAA"/>
<path d="M38.5005 19.2499C38.5005 18.2103 38.8092 17.1941 39.3874 16.3301C39.9656 15.4661 40.7873 14.7932 41.7484 14.3967C42.7095 14.0003 43.7666 13.8981 44.7858 14.1031C45.805 14.3081 46.7404 14.8111 47.4734 15.5483C48.2064 16.2856 48.7041 17.2238 48.9033 18.2442C49.1024 19.2646 48.9942 20.3211 48.5922 21.2799C48.1902 22.2386 47.5127 23.0565 46.6454 23.6297C45.7781 24.203 44.7601 24.5058 43.7205 24.4999C43.031 24.5053 42.3473 24.373 41.7096 24.1106C41.0719 23.8483 40.4929 23.4613 40.0067 22.9724C39.5205 22.4834 39.1369 21.9022 38.8782 21.263C38.6196 20.6238 38.4912 19.9394 38.5005 19.2499ZM46.0205 19.2499C46.0087 18.8017 45.865 18.3669 45.6074 18C45.3498 17.633 44.9898 17.3501 44.5722 17.1867C44.1547 17.0233 43.6983 16.9866 43.2601 17.0813C42.8218 17.1759 42.4212 17.3976 42.1083 17.7188C41.7954 18.0399 41.5841 18.4461 41.5009 18.8867C41.4177 19.3273 41.4662 19.7826 41.6404 20.1957C41.8146 20.6088 42.1067 20.9615 42.4803 21.2094C42.8538 21.4574 43.2921 21.5897 43.7405 21.5899C44.0458 21.5959 44.349 21.5388 44.6312 21.4222C44.9134 21.3057 45.1685 21.1322 45.3806 20.9126C45.5927 20.693 45.7572 20.4319 45.8639 20.1459C45.9706 19.8598 46.0171 19.5548 46.0005 19.2499H46.0205Z" fill="#AAAAAA"/>
<path d="M60.8103 14.3001V23.7101C60.8103 27.0301 58.2103 28.4401 55.5803 28.4401C54.6526 28.5162 53.7221 28.3319 52.8936 27.9079C52.065 27.4839 51.3712 26.837 50.8903 26.0401L53.4203 24.5801C53.6253 24.9935 53.9514 25.3345 54.3552 25.5578C54.759 25.7811 55.2212 25.8761 55.6803 25.8301C55.9728 25.8661 56.2696 25.8371 56.5495 25.7451C56.8295 25.653 57.0856 25.5003 57.2996 25.2977C57.5137 25.0951 57.6803 24.8478 57.7876 24.5733C57.8949 24.2989 57.9402 24.0041 57.9203 23.7101V22.8001C57.5712 23.2234 57.1282 23.5594 56.6266 23.7816C56.1249 24.0038 55.5784 24.106 55.0303 24.0801C53.7042 24.0801 52.4325 23.5533 51.4948 22.6156C50.5571 21.678 50.0303 20.4062 50.0303 19.0801C50.0303 17.754 50.5571 16.4823 51.4948 15.5446C52.4325 14.6069 53.7042 14.0801 55.0303 14.0801C55.5784 14.0542 56.1249 14.1564 56.6266 14.3786C57.1282 14.6008 57.5712 14.9368 57.9203 15.3601V14.3601L60.8103 14.3001ZM57.9203 19.0501C57.9402 18.5717 57.8166 18.0982 57.5653 17.6906C57.314 17.283 56.9466 16.9599 56.5101 16.7628C56.0737 16.5657 55.5884 16.5037 55.1164 16.5847C54.6445 16.6657 54.2075 16.886 53.8618 17.2173C53.5161 17.5486 53.2774 17.9758 53.1764 18.4439C53.0754 18.912 53.1167 19.3995 53.295 19.8439C53.4734 20.2883 53.7806 20.6692 54.1771 20.9376C54.5737 21.206 55.0415 21.3497 55.5203 21.3501C55.8328 21.3726 56.1465 21.3293 56.4411 21.2231C56.7358 21.1168 57.005 20.9499 57.2311 20.7331C57.4573 20.5164 57.6355 20.2546 57.7542 19.9647C57.8729 19.6748 57.9295 19.3632 57.9203 19.0501Z" fill="#AAAAAA"/>
<path d="M62.5003 19.25C62.5003 18.2112 62.8085 17.1958 63.3858 16.3322C63.9631 15.4686 64.7837 14.7957 65.7436 14.3987C66.7035 14.0016 67.7595 13.8982 68.7782 14.1016C69.7969 14.305 70.7323 14.806 71.4662 15.5412C72.2 16.2765 72.6992 17.2129 72.9006 18.2319C73.1021 19.251 72.9968 20.3069 72.5979 21.266C72.199 22.2252 71.5244 23.0444 70.6598 23.6201C69.7951 24.1958 68.7791 24.502 67.7403 24.5C67.0495 24.5067 66.3643 24.3754 65.7249 24.1138C65.0855 23.8522 64.5046 23.4656 64.0166 22.9766C63.5285 22.4876 63.143 21.9061 62.8826 21.2662C62.6223 20.6263 62.4923 19.9408 62.5003 19.25ZM70.0203 19.25C70.0085 18.8014 69.8645 18.3662 69.6065 17.999C69.3485 17.6319 68.9878 17.349 68.5697 17.1859C68.1516 17.0228 67.6947 16.9867 67.2562 17.0822C66.8177 17.1776 66.4171 17.4004 66.1046 17.7225C65.7921 18.0446 65.5816 18.4518 65.4996 18.893C65.4175 19.3342 65.4674 19.7898 65.6431 20.2027C65.8188 20.6157 66.1125 20.9676 66.4874 21.2144C66.8622 21.4611 67.3015 21.5918 67.7503 21.59C68.0556 21.596 68.3588 21.5389 68.641 21.4223C68.9232 21.3058 69.1783 21.1323 69.3904 20.9127C69.6025 20.6931 69.767 20.432 69.8737 20.146C69.9804 19.8599 70.027 19.5549 70.0104 19.25H70.0203Z" fill="#AAAAAA"/>
<path d="M74.3701 11.6501C74.3701 11.2981 74.4745 10.9539 74.6701 10.6612C74.8657 10.3685 75.1437 10.1403 75.4689 10.0056C75.7942 9.87089 76.1521 9.83564 76.4974 9.90432C76.8426 9.973 77.1598 10.1425 77.4088 10.3915C77.6577 10.6404 77.8272 10.9576 77.8959 11.3028C77.9646 11.6481 77.9293 12.006 77.7946 12.3313C77.6599 12.6565 77.4317 12.9345 77.139 13.1301C76.8463 13.3257 76.5022 13.4301 76.1501 13.4301C75.6796 13.4249 75.2299 13.2357 74.8972 12.903C74.5645 12.5703 74.3753 12.1206 74.3701 11.6501ZM74.6601 14.3001H77.6601V24.2001H74.6601V14.3001Z" fill="#AAAAAA"/>
<path d="M90.5005 19.2501C90.5341 19.9085 90.4372 20.5671 90.2153 21.1879C89.9935 21.8087 89.651 22.3795 89.2077 22.8674C88.7643 23.3554 88.2289 23.7508 87.6321 24.031C87.0354 24.3112 86.3891 24.4706 85.7305 24.5001C85.1716 24.5373 84.6115 24.4478 84.0921 24.2383C83.5726 24.0287 83.1072 23.7046 82.7305 23.2901V28.1801H79.7305V14.3001H82.7305V15.2301C83.1077 14.8168 83.5735 14.4942 84.093 14.2864C84.6125 14.0785 85.1723 13.9909 85.7305 14.0301C86.3865 14.0596 87.0302 14.2181 87.6249 14.4964C88.2196 14.7747 88.7537 15.1675 89.1966 15.6522C89.6396 16.1369 89.9827 16.7041 90.2064 17.3215C90.4301 17.9388 90.5301 18.5941 90.5005 19.2501ZM87.5005 19.2501C87.4887 18.7856 87.34 18.335 87.0732 17.9547C86.8064 17.5744 86.4332 17.2812 86.0005 17.1121C85.5678 16.9429 85.0948 16.9053 84.6407 17.0038C84.1867 17.1023 83.7719 17.3327 83.4482 17.666C83.1245 17.9993 82.9064 18.4207 82.8213 18.8775C82.7361 19.3342 82.7876 19.8059 82.9694 20.2335C83.1512 20.661 83.4551 21.0254 83.8431 21.281C84.2311 21.5366 84.6859 21.6719 85.1505 21.6701C85.4687 21.6836 85.7862 21.6297 86.0821 21.5119C86.3781 21.3941 86.6458 21.2151 86.8677 20.9866C87.0896 20.7581 87.2606 20.4852 87.3697 20.186C87.4788 19.8867 87.5233 19.5678 87.5005 19.2501Z" fill="#AAAAAA"/>
<path d="M99.63 21.2302C99.63 23.5102 97.63 24.4802 95.51 24.4802C94.6453 24.558 93.7772 24.3747 93.0178 23.954C92.2584 23.5333 91.6426 22.8945 91.25 22.1202L93.83 20.6602C93.9322 21.017 94.1538 21.3279 94.4578 21.5409C94.7618 21.7539 95.1297 21.856 95.5 21.8302C96.21 21.8302 96.57 21.6102 96.57 21.2102C96.57 20.1202 91.7 20.7002 91.7 17.2702C91.7 15.1102 93.52 14.0302 95.58 14.0302C96.363 13.9951 97.141 14.1728 97.8311 14.5443C98.5213 14.9158 99.098 15.4673 99.5 16.1402L96.92 17.5002C96.806 17.2422 96.6198 17.0228 96.3838 16.8684C96.1477 16.714 95.872 16.6313 95.59 16.6302C95.07 16.6302 94.76 16.8302 94.76 17.1802C94.76 18.3202 99.63 17.5702 99.63 21.2302Z" fill="#AAAAAA"/>
<path d="M110.5 14.2998V24.1998H107.5V23.2698C107.159 23.6815 106.726 24.0072 106.237 24.2209C105.747 24.4346 105.214 24.5301 104.68 24.4998C102.68 24.4998 100.97 23.0698 100.97 20.3998V14.2998H103.97V19.9498C103.946 20.186 103.974 20.4245 104.052 20.6489C104.13 20.8732 104.255 21.078 104.419 21.2492C104.584 21.4203 104.784 21.5537 105.005 21.6402C105.226 21.7266 105.463 21.764 105.7 21.7498C106.78 21.7498 107.54 21.1098 107.54 19.7498V14.2998H110.5Z" fill="#AAAAAA"/>
<path d="M127.5 18.1202V24.2002H124.5V18.3802C124.5 17.3802 124.03 16.7602 123.08 16.7602C122.13 16.7602 121.53 17.4502 121.53 18.6202V24.2002H118.53V18.3802C118.53 17.3802 118.06 16.7602 117.11 16.7602C116.16 16.7602 115.56 17.4502 115.56 18.6202V24.2002H112.56V14.3002H115.56V15.2102C115.871 14.8082 116.276 14.4898 116.741 14.2838C117.205 14.0778 117.714 13.9906 118.22 14.0302C118.727 14.0037 119.233 14.1097 119.687 14.3376C120.141 14.5655 120.528 14.9076 120.81 15.3302C121.14 14.8886 121.576 14.5378 122.078 14.3105C122.579 14.0831 123.131 13.9867 123.68 14.0302C126.02 14.0302 127.5 15.6502 127.5 18.1202Z" fill="#AAAAAA"/>
<path d="M130.02 14.2398C131.235 14.2398 132.22 13.2548 132.22 12.0398C132.22 10.8248 131.235 9.83984 130.02 9.83984C128.805 9.83984 127.82 10.8248 127.82 12.0398C127.82 13.2548 128.805 14.2398 130.02 14.2398Z" fill="#AAAAAA"/>
</svg>
