<svg width="141" height="31" viewBox="0 0 141 31" fill="none" xmlns="http://www.w3.org/2000/svg">
<path d="M22.9191 13.8708C22.5401 14.2521 22.2499 14.7123 22.069 15.2185C21.8882 15.7248 21.8213 16.2647 21.873 16.7998L21.855 16.7818C21.9082 17.4117 21.8232 18.0455 21.6061 18.6392C21.389 19.2328 21.0451 19.7719 20.5982 20.2189C20.1512 20.6658 19.612 21.0099 19.0183 21.2269C18.4247 21.444 17.7908 21.529 17.161 21.4758L17.1791 21.4938C16.4257 21.4237 15.6689 21.5876 15.012 21.9633C14.3552 22.339 13.8302 22.9081 13.5087 23.5931C13.1872 24.2781 13.0847 25.0455 13.2153 25.7909C13.346 26.5362 13.7033 27.2231 14.2386 27.7579C14.7739 28.2927 15.4611 28.6494 16.2065 28.7793C16.952 28.9093 17.7193 28.8061 18.404 28.484C19.0887 28.1618 19.6573 27.6364 20.0324 26.9792C20.4075 26.322 20.5708 25.5652 20.5 24.8118L20.519 24.8298C20.4658 24.2 20.5507 23.5661 20.7678 22.9724C20.9849 22.3788 21.329 21.8397 21.7759 21.3927C22.2229 20.9458 22.762 20.6017 23.3556 20.3847C23.9494 20.1676 24.5831 20.0826 25.213 20.1358L25.194 20.1178C25.8095 20.1731 26.429 20.0722 26.9951 19.8244C27.5611 19.5766 28.0554 19.1899 28.4322 18.7002C28.809 18.2105 29.0562 17.6335 29.1507 17.0229C29.2451 16.4122 29.184 15.7876 28.9727 15.2068C28.7615 14.6261 28.4071 14.1081 27.9424 13.7008C27.4777 13.2935 26.9178 13.0101 26.3144 12.8769C25.7109 12.7437 25.0837 12.7649 24.4907 12.9386C23.8976 13.1124 23.3582 13.433 22.9221 13.8708H22.9191Z" fill="#AAAAAA"/>
<path d="M15.5422 19.1362L15.5232 19.1182C16.0585 19.1721 16.5991 19.1064 17.106 18.9258C17.6128 18.7452 18.0732 18.4543 18.4538 18.074C18.8343 17.6937 19.1257 17.2335 19.3066 16.7268C19.4876 16.2201 19.5537 15.6796 19.5002 15.1442L19.5192 15.1622C19.466 14.5323 19.551 13.8985 19.768 13.3048C19.9851 12.7112 20.3292 12.1721 20.7761 11.7251C21.2231 11.2782 21.7622 10.9341 22.3558 10.7171C22.9495 10.5 23.5833 10.4151 24.2132 10.4682L24.1942 10.4502C24.9477 10.521 25.7046 10.3576 26.3618 9.98234C27.0191 9.60708 27.5445 9.03821 27.8665 8.35334C28.1885 7.66848 28.2914 6.90095 28.1612 6.15544C28.031 5.40993 27.674 4.72275 27.1388 4.18761C26.6037 3.65248 25.9165 3.29544 25.171 3.16522C24.4255 3.03499 23.658 3.1379 22.9731 3.45992C22.2882 3.78193 21.7194 4.30738 21.3441 4.96459C20.9688 5.62179 20.8054 6.37876 20.8762 7.13224L20.8582 7.11324C20.9115 7.74313 20.8267 8.37707 20.6097 8.97079C20.3927 9.56451 20.0486 10.1037 19.6017 10.5507C19.1547 10.9976 18.6155 11.3417 18.0218 11.5587C17.428 11.7757 16.7941 11.8605 16.1642 11.8072L16.1822 11.8262C15.6469 11.7723 15.1062 11.838 14.5994 12.0186C14.0926 12.1991 13.6322 12.4901 13.2516 12.8704C12.871 13.2507 12.5797 13.7109 12.3987 14.2176C12.2178 14.7243 12.1517 15.2648 12.2052 15.8002L12.1872 15.7822C12.2402 16.412 12.1551 17.0458 11.938 17.6394C11.7208 18.2329 11.3768 18.772 10.9299 19.2189C10.4829 19.6658 9.94387 20.0098 9.35031 20.227C8.75675 20.4441 8.12296 20.5292 7.49315 20.4762L7.51115 20.4942C6.75767 20.4234 6.0007 20.5868 5.34349 20.9621C4.68629 21.3374 4.16084 21.9062 3.83883 22.5911C3.51681 23.276 3.41389 24.0435 3.54412 24.789C3.67435 25.5345 4.03139 26.2217 4.56652 26.7568C5.10166 27.292 5.78884 27.649 6.53435 27.7792C7.27986 27.9094 8.04739 27.8065 8.73226 27.4845C9.41712 27.1625 9.98599 26.6371 10.3613 25.9799C10.7366 25.3226 10.9 24.5657 10.8292 23.8122L10.8482 23.8302C10.795 23.2003 10.88 22.5665 11.0971 21.9728C11.3141 21.3792 11.6582 20.8401 12.1051 20.3931C12.5521 19.9462 13.0912 19.6021 13.6848 19.3851C14.2785 19.168 14.9123 19.083 15.5422 19.1362Z" fill="#AAAAAA"/>
<path d="M8.84021 17.1289C9.21923 16.7477 9.50941 16.2875 9.69005 15.7812C9.87069 15.2749 9.93733 14.7349 9.88521 14.1999L9.9042 14.2179C9.851 13.5879 9.93596 12.9538 10.1532 12.36C10.3704 11.7662 10.7146 11.227 11.1618 10.78C11.609 10.3331 12.1483 9.98907 12.7422 9.77212C13.3361 9.55516 13.9702 9.47046 14.6002 9.52394L14.5812 9.50594C15.3344 9.57651 16.0911 9.41302 16.748 9.03778C17.4049 8.66255 17.93 8.09382 18.2519 7.40917C18.5737 6.72451 18.6765 5.95726 18.5463 5.21203C18.4161 4.4668 18.0591 3.77988 17.5242 3.24494C16.9893 2.71 16.3023 2.35308 15.5571 2.22286C14.8119 2.09263 14.0446 2.19545 13.36 2.51727C12.6753 2.83909 12.1066 3.36426 11.7314 4.02116C11.3561 4.67806 11.1926 5.43472 11.2632 6.18794L11.2452 6.16994C11.2984 6.79979 11.2134 7.43366 10.9963 8.0273C10.7792 8.62094 10.4352 9.16005 9.98827 9.60701C9.54132 10.054 9.0022 10.398 8.40856 10.615C7.81492 10.8321 7.18106 10.9171 6.55121 10.8639L6.56921 10.8819C5.95378 10.8267 5.33437 10.9278 4.76839 11.1757C4.20241 11.4236 3.70816 11.8104 3.33145 12.3002C2.95474 12.7899 2.70776 13.3669 2.61338 13.9775C2.51901 14.5882 2.5803 15.2128 2.79157 15.7934C3.00284 16.3741 3.35727 16.892 3.822 17.2992C4.28673 17.7065 4.84673 17.9898 5.45011 18.123C6.05348 18.2561 6.68071 18.2348 7.27368 18.0611C7.86664 17.8873 8.40614 17.5667 8.8422 17.1289H8.84021Z" fill="#AAAAAA"/>
<path d="M39.8174 7.15479H42.7874V21.6078H39.8174V7.15479Z" fill="#AAAAAA"/>
<path d="M44.4689 16.6591C44.4648 15.6205 44.769 14.6039 45.343 13.7383C45.917 12.8727 46.735 12.1969 47.6934 11.7966C48.6518 11.3962 49.7074 11.2893 50.7266 11.4894C51.7458 11.6895 52.6827 12.1875 53.4186 12.9205C54.1545 13.6534 54.6563 14.5883 54.8605 15.6067C55.0647 16.6251 54.962 17.6812 54.5655 18.6412C54.169 19.6011 53.4965 20.4219 52.6332 20.9993C51.7698 21.5768 50.7546 21.8851 49.7159 21.8851C49.0265 21.893 48.3424 21.7633 47.7036 21.5037C47.0648 21.2441 46.4842 20.8598 45.9957 20.3733C45.5071 19.8867 45.1205 19.3076 44.8584 18.6699C44.5962 18.0322 44.4638 17.3486 44.4689 16.6591ZM51.9929 16.6591C51.9805 16.2114 51.8364 15.7773 51.5787 15.411C51.3209 15.0448 50.9609 14.7626 50.5437 14.5999C50.1264 14.4371 49.6705 14.4009 49.2328 14.4959C48.7951 14.5909 48.3951 14.8127 48.0828 15.1338C47.7706 15.4548 47.5598 15.8608 47.4771 16.301C47.3943 16.7411 47.443 17.1959 47.6173 17.6085C47.7916 18.0211 48.0836 18.3731 48.4568 18.6206C48.8301 18.8681 49.2681 19.0001 49.7159 19.0001C50.0226 19.0083 50.3277 18.9528 50.612 18.8372C50.8962 18.7216 51.1534 18.5484 51.3673 18.3285C51.5812 18.1085 51.7473 17.8466 51.8549 17.5593C51.9626 17.272 52.0096 16.9655 51.9929 16.6591Z" fill="#AAAAAA"/>
<path d="M66.7999 11.7088V21.1088C66.7999 24.4348 64.2059 25.8408 61.5729 25.8408C60.6459 25.9102 59.7176 25.7229 58.8899 25.2996C58.0623 24.8762 57.3672 24.2331 56.8809 23.4408L59.4149 21.9758C59.6193 22.3888 59.945 22.7295 60.3483 22.9524C60.7517 23.1752 61.2135 23.2696 61.6719 23.2228C61.9649 23.2634 62.2633 23.2376 62.545 23.1473C62.8266 23.057 63.0844 22.9045 63.2992 22.7012C63.514 22.4978 63.6803 22.2488 63.7859 21.9724C63.8914 21.6961 63.9334 21.3996 63.9089 21.1048V20.1998C63.5611 20.6253 63.1185 20.9634 62.6164 21.1869C62.1143 21.4104 61.5669 21.5131 61.0179 21.4868C59.7117 21.4456 58.4728 20.8978 57.5634 19.9592C56.654 19.0207 56.1455 17.7651 56.1455 16.4583C56.1455 15.1515 56.654 13.8959 57.5634 12.9574C58.4728 12.0188 59.7117 11.471 61.0179 11.4298C61.5669 11.4035 62.1143 11.5062 62.6164 11.7297C63.1185 11.9532 63.5611 12.2913 63.9089 12.7168V11.7068L66.7999 11.7088ZM63.9099 16.4598C63.9299 15.9812 63.8061 15.5075 63.5546 15.0998C63.3031 14.692 62.9353 14.3689 62.4986 14.172C62.0619 13.975 61.5763 13.9133 61.1042 13.9947C60.6321 14.0761 60.1952 14.2969 59.8496 14.6288C59.5041 14.9606 59.2658 15.3882 59.1653 15.8566C59.0649 16.325 59.1069 16.8128 59.2861 17.2571C59.4652 17.7014 59.7732 18.082 60.1704 18.3498C60.5676 18.6176 61.0359 18.7604 61.5149 18.7598C61.827 18.7816 62.1401 18.7378 62.4342 18.6312C62.7283 18.5246 62.9968 18.3575 63.2224 18.1409C63.448 17.9242 63.6258 17.6627 63.7442 17.3731C63.8626 17.0836 63.9191 16.7725 63.9099 16.4598Z" fill="#AAAAAA"/>
<path d="M68.4816 16.6591C68.4775 15.6205 68.7816 14.6039 69.3557 13.7383C69.9297 12.8727 70.7477 12.1969 71.7061 11.7966C72.6645 11.3962 73.7201 11.2893 74.7393 11.4894C75.7585 11.6895 76.6954 12.1875 77.4313 12.9205C78.1672 13.6534 78.669 14.5883 78.8732 15.6067C79.0774 16.6251 78.9747 17.6812 78.5782 18.6412C78.1817 19.6011 77.5092 20.4219 76.6459 20.9993C75.7825 21.5768 74.7673 21.8851 73.7286 21.8851C73.0392 21.893 72.355 21.7633 71.7163 21.5037C71.0775 21.2441 70.4969 20.8598 70.0084 20.3733C69.5198 19.8867 69.1332 19.3076 68.8711 18.6699C68.6089 18.0322 68.4765 17.3486 68.4816 16.6591ZM76.0056 16.6591C75.9932 16.2114 75.8491 15.7773 75.5914 15.411C75.3336 15.0448 74.9736 14.7626 74.5564 14.5999C74.1391 14.4371 73.6831 14.4009 73.2455 14.4959C72.8078 14.5909 72.4078 14.8127 72.0955 15.1338C71.7833 15.4548 71.5725 15.8608 71.4897 16.301C71.4069 16.7411 71.4557 17.1959 71.63 17.6085C71.8043 18.0211 72.0963 18.3731 72.4695 18.6206C72.8428 18.8681 73.2807 19.0001 73.7286 19.0001C74.0353 19.0083 74.3404 18.9528 74.6246 18.8372C74.9089 18.7216 75.1661 18.5484 75.38 18.3285C75.5939 18.1085 75.76 17.8466 75.8676 17.5593C75.9753 17.272 76.0223 16.9655 76.0056 16.6591Z" fill="#AAAAAA"/>
<path d="M80.3613 9.05593C80.3613 8.70348 80.4658 8.35895 80.6616 8.06591C80.8574 7.77286 81.1358 7.54445 81.4614 7.40958C81.787 7.2747 82.1453 7.23941 82.491 7.30817C82.8366 7.37693 83.1542 7.54665 83.4034 7.79587C83.6526 8.04508 83.8223 8.3626 83.8911 8.70828C83.9598 9.05395 83.9245 9.41225 83.7897 9.73787C83.6548 10.0635 83.4264 10.3418 83.1333 10.5376C82.8403 10.7334 82.4958 10.8379 82.1433 10.8379C81.6722 10.8332 81.2216 10.644 80.8884 10.3108C80.5553 9.97763 80.366 9.52709 80.3613 9.05593ZM80.6613 11.7089H83.6323V21.6089H80.6573L80.6613 11.7089Z" fill="#AAAAAA"/>
<path d="M96.4557 16.6588C96.49 17.3131 96.3947 17.9677 96.1751 18.585C95.9556 19.2023 95.6162 19.7701 95.1764 20.2558C94.7367 20.7414 94.2052 21.1354 93.6127 21.415C93.0201 21.6945 92.3782 21.8542 91.7237 21.8848C91.1733 21.9148 90.6232 21.822 90.1131 21.6131C89.603 21.4041 89.1459 21.0843 88.7747 20.6768V25.5678H85.8047V11.7088H88.7747V12.6388C89.146 12.2316 89.6033 11.912 90.1133 11.7033C90.6234 11.4945 91.1734 11.4018 91.7237 11.4318C92.3783 11.4623 93.0204 11.6219 93.6131 11.9015C94.2058 12.1811 94.7373 12.5751 95.1771 13.0609C95.6169 13.5467 95.9563 14.1147 96.1757 14.7322C96.3951 15.3496 96.4903 16.0044 96.4557 16.6588ZM93.4857 16.6588C93.4741 16.1955 93.3261 15.7459 93.0602 15.3662C92.7943 14.9866 92.4224 14.6938 91.991 14.5246C91.5595 14.3553 91.0877 14.317 90.6346 14.4146C90.1815 14.5121 89.7673 14.7411 89.4437 15.0729C89.1201 15.4048 88.9016 15.8246 88.8155 16.2801C88.7294 16.7355 88.7795 17.2061 88.9596 17.6332C89.1396 18.0603 89.4417 18.4247 89.8279 18.681C90.2141 18.9372 90.6672 19.0739 91.1307 19.0738C91.4489 19.088 91.7665 19.0347 92.0627 18.9175C92.3588 18.8004 92.6269 18.6219 92.8492 18.3939C93.0716 18.1658 93.2432 17.8934 93.3529 17.5944C93.4626 17.2954 93.5079 16.9765 93.4857 16.6588Z" fill="#AAAAAA"/>
<path d="M105.621 18.6379C105.621 20.9149 103.642 21.8849 101.504 21.8849C100.64 21.9631 99.7728 21.7805 99.0139 21.3604C98.255 20.9404 97.6396 20.3024 97.2471 19.5289L99.8201 18.0639C99.9242 18.4214 100.148 18.7325 100.453 18.945C100.759 19.1576 101.129 19.2589 101.5 19.2319C102.212 19.2319 102.569 19.0139 102.569 18.6189C102.569 17.5289 97.6981 18.1039 97.6981 14.6789C97.6981 12.5199 99.5201 11.4319 101.579 11.4319C102.353 11.4074 103.119 11.591 103.798 11.9635C104.477 12.3361 105.044 12.8839 105.439 13.5499L102.905 14.9159C102.794 14.6566 102.609 14.4357 102.373 14.2808C102.137 14.1259 101.861 14.0439 101.579 14.0449C101.064 14.0449 100.747 14.2449 100.747 14.5989C100.751 15.7279 105.621 14.9749 105.621 18.6379Z" fill="#AAAAAA"/>
<path d="M116.47 11.709V21.609H113.5V20.678C113.157 21.0888 112.722 21.4125 112.23 21.6225C111.738 21.8325 111.204 21.9228 110.67 21.886C108.67 21.886 106.97 20.461 106.97 17.786V11.709H109.94V17.351C109.915 17.5868 109.942 17.8252 110.019 18.0495C110.095 18.2739 110.22 18.4789 110.384 18.6502C110.548 18.8215 110.747 18.955 110.968 19.0415C111.188 19.128 111.425 19.1654 111.662 19.151C112.751 19.151 113.503 18.518 113.503 17.112V11.712L116.47 11.709Z" fill="#AAAAAA"/>
<path d="M133.5 15.5302V21.6082H130.53V15.7872C130.53 14.7972 130.055 14.1642 129.105 14.1642C128.115 14.1642 127.56 14.8572 127.56 16.0252V21.6082H124.591V15.7872C124.591 14.7972 124.116 14.1642 123.165 14.1642C122.175 14.1642 121.621 14.8572 121.621 16.0252V21.6082H118.651V11.7082H121.621V12.6182C121.929 12.2145 122.333 11.8943 122.796 11.687C123.26 11.4796 123.768 11.3917 124.274 11.4312C124.782 11.4063 125.288 11.5136 125.743 11.7425C126.197 11.9713 126.584 12.3141 126.867 12.7372C127.196 12.2945 127.632 11.9425 128.134 11.7141C128.636 11.4857 129.188 11.3884 129.738 11.4312C132.011 11.4322 133.5 13.0552 133.5 15.5302Z" fill="#AAAAAA"/>
<path d="M136.012 11.6482C137.229 11.6482 138.216 10.6614 138.216 9.44423C138.216 8.22699 137.229 7.24023 136.012 7.24023C134.795 7.24023 133.808 8.22699 133.808 9.44423C133.808 10.6614 134.795 11.6482 136.012 11.6482Z" fill="#AAAAAA"/>
</svg>
