<svg width="153" height="39" viewBox="0 0 153 39" fill="none" xmlns="http://www.w3.org/2000/svg">
<path d="M53.5615 24.7769H62.4475V22.3572H56.4964V10.8955H53.5615V24.7769Z" fill="#AAAAAA"/>
<path d="M68.4678 24.98C71.6264 24.98 73.5921 22.8178 73.5921 19.6118C73.5921 16.3854 71.6264 14.23 68.4678 14.23C65.3093 14.23 63.3438 16.3854 63.3438 19.6118C63.3438 22.8178 65.3093 24.98 68.4678 24.98ZM68.4814 22.7432C67.0241 22.7432 66.2786 21.4079 66.2786 19.5914C66.2786 17.7749 67.0241 16.4329 68.4814 16.4329C69.9116 16.4329 70.6571 17.7749 70.6571 19.5914C70.6571 21.4079 69.9116 22.7432 68.4814 22.7432Z" fill="#AAAAAA"/>
<path d="M79.5874 28.8977C82.563 28.8977 84.6777 27.542 84.6777 24.8783V14.3656H81.8106V16.1143H81.7022C81.3158 15.267 80.4686 14.23 78.7266 14.23C76.4424 14.23 74.5107 16.0059 74.5107 19.5508C74.5107 23.0143 76.3882 24.6275 78.7334 24.6275C80.394 24.6275 81.3226 23.7938 81.7022 22.933H81.8242V24.8376C81.8242 26.2678 80.9091 26.8236 79.6552 26.8236C78.3809 26.8236 77.737 26.2678 77.4998 25.6374L74.8293 25.9967C75.1749 27.6369 76.7813 28.8977 79.5874 28.8977ZM79.6484 22.4585C78.2318 22.4585 77.4591 21.3334 77.4591 19.5372C77.4591 17.7681 78.2183 16.5278 79.6484 16.5278C81.0515 16.5278 81.8377 17.7139 81.8377 19.5372C81.8377 21.374 81.0379 22.4585 79.6484 22.4585Z" fill="#AAAAAA"/>
<path d="M91.1066 24.98C94.2652 24.98 96.2308 22.8178 96.2308 19.6118C96.2308 16.3854 94.2652 14.23 91.1066 14.23C87.9481 14.23 85.9824 16.3854 85.9824 19.6118C85.9824 22.8178 87.9481 24.98 91.1066 24.98ZM91.1202 22.7432C89.6629 22.7432 88.9173 21.4079 88.9173 19.5914C88.9173 17.7749 89.6629 16.4329 91.1202 16.4329C92.5503 16.4329 93.2959 17.7749 93.2959 19.5914C93.2959 21.4079 92.5503 22.7432 91.1202 22.7432Z" fill="#AAAAAA"/>
<path d="M97.5362 24.7769H100.424V14.3659H97.5362V24.7769ZM98.9867 13.0238C99.8475 13.0238 100.552 12.3664 100.552 11.5598C100.552 10.76 99.8475 10.1025 98.9867 10.1025C98.1327 10.1025 97.4277 10.76 97.4277 11.5598C97.4277 12.3664 98.1327 13.0238 98.9867 13.0238Z" fill="#AAAAAA"/>
<path d="M102.164 28.6808H105.051V23.1092H105.139C105.539 23.9768 106.413 24.9461 108.094 24.9461C110.467 24.9461 112.317 23.0686 112.317 19.5846C112.317 16.0059 110.385 14.23 108.101 14.23C106.359 14.23 105.526 15.267 105.139 16.1143H105.01V14.3656H102.164V28.6808ZM104.99 19.5711C104.99 17.7139 105.776 16.5278 107.179 16.5278C108.61 16.5278 109.369 17.7681 109.369 19.5711C109.369 21.3876 108.596 22.6483 107.179 22.6483C105.79 22.6483 104.99 21.4283 104.99 19.5711Z" fill="#AAAAAA"/>
<path d="M122.332 17.3343C122.074 15.4162 120.529 14.23 117.899 14.23C115.235 14.23 113.48 15.4636 113.486 17.4699C113.48 19.0289 114.462 20.0388 116.496 20.4455L118.299 20.8047C119.207 20.9877 119.621 21.3198 119.634 21.8417C119.621 22.4585 118.95 22.8991 117.94 22.8991C116.909 22.8991 116.225 22.4585 116.049 21.6113L113.209 21.7604C113.48 23.7531 115.174 24.98 117.933 24.98C120.63 24.98 122.562 23.604 122.569 21.5503C122.562 20.0456 121.579 19.1441 119.56 18.7306L117.675 18.351C116.706 18.1409 116.347 17.8088 116.354 17.3072C116.347 16.6837 117.052 16.277 117.946 16.277C118.95 16.277 119.546 16.826 119.688 17.497L122.332 17.3343Z" fill="#AAAAAA"/>
<path d="M130.491 20.3439C130.498 21.7402 129.542 22.4722 128.505 22.4722C127.414 22.4722 126.709 21.7063 126.702 20.4794V14.3657H123.815V20.9946C123.821 23.4279 125.245 24.9123 127.339 24.9123C128.905 24.9123 130.03 24.1057 130.498 22.8856H130.606V24.7767H133.378V14.3657H130.491V20.3439Z" fill="#AAAAAA"/>
<path d="M135.115 24.7766H138.003V18.5273C138.003 17.375 138.735 16.6091 139.697 16.6091C140.646 16.6091 141.283 17.2598 141.283 18.2833V24.7766H144.083V18.4188C144.083 17.3411 144.7 16.6091 145.75 16.6091C146.672 16.6091 147.363 17.1852 147.363 18.3443V24.7766H150.244V17.7749C150.244 15.5178 148.902 14.23 146.963 14.23C145.438 14.23 144.252 15.0095 143.825 16.2024H143.717C143.385 14.9959 142.32 14.23 140.89 14.23C139.487 14.23 138.423 14.9756 137.989 16.2024H137.867V14.3656H135.115V24.7766Z" fill="#AAAAAA"/>
<path d="M17.6229 2H26.6217L23.0096 12.0943C16.652 13.2115 11.7894 19.3625 11.7894 26.783C11.7894 30.1305 12.779 33.2197 14.4489 35.7049H2.5L13.4236 5.17808C14.1104 3.25863 15.7735 2 17.6229 2Z" fill="#202020"/>
<path d="M26.6219 2L24.0833 9.09426L23.3184 2H26.6219Z" fill="black" fill-opacity="0.3"/>
<path d="M32.3172 2H23.3184L26.9153 12.0517C33.3994 13.0452 38.3945 19.262 38.3945 26.783C38.3945 30.1305 37.4049 33.2197 35.735 35.7049H47.4401L36.5165 5.17809C35.8297 3.25863 34.1666 2 32.3172 2Z" fill="#202020"/>
<path d="M16.0183 34.7336C14.4805 32.5436 13.5635 29.7831 13.5635 26.7831C13.5635 19.6657 18.7251 13.896 25.0922 13.896C31.4594 13.896 36.621 19.6657 36.621 26.7831C36.621 29.7831 35.704 32.5436 34.1662 34.7336C31.6417 32.8542 28.4989 31.7397 25.0922 31.7397C21.6856 31.7397 18.5428 32.8542 16.0183 34.7336Z" fill="#202020"/>
</svg>
