<svg width="168" height="41" viewBox="0 0 168 41" fill="none" xmlns="http://www.w3.org/2000/svg">
<g clip-path="url(#clip0_5_279)">
<path d="M49.1309 28.7938H61.0829V25.1938H53.3789V11.6338H49.1309V28.7938Z" fill="#AAAAAA"/>
<path d="M68.1643 26.3934C66.4603 26.3934 65.5723 24.9054 65.5723 22.6734C65.5723 20.4414 66.4603 18.9294 68.1643 18.9294C69.8683 18.9294 70.7803 20.4414 70.7803 22.6734C70.7803 24.9054 69.8683 26.3934 68.1643 26.3934ZM68.1883 29.1774C72.1483 29.1774 74.7403 26.3694 74.7403 22.6734C74.7403 18.9774 72.1483 16.1694 68.1883 16.1694C64.2523 16.1694 61.6123 18.9774 61.6123 22.6734C61.6123 26.3694 64.2523 29.1774 68.1883 29.1774Z" fill="#AAAAAA"/>
<path d="M81.5941 33.0415C83.4181 33.0415 85.0261 32.6335 86.1061 31.6735C87.0901 30.7855 87.7381 29.4415 87.7381 27.5935V16.5055H83.9941V17.8255H83.9461C83.2261 16.7935 82.1221 16.1455 80.4901 16.1455C77.4421 16.1455 75.3301 18.6895 75.3301 22.2895C75.3301 26.0575 77.8981 28.1215 80.6581 28.1215C82.1461 28.1215 83.0821 27.5215 83.8021 26.7055H83.8981V27.9295C83.8981 29.4175 83.2021 30.2815 81.5461 30.2815C80.2501 30.2815 79.6021 29.7295 79.3861 29.0815H75.5941C75.9781 31.6495 78.2101 33.0415 81.5941 33.0415ZM81.5701 25.2175C80.1061 25.2175 79.1461 24.0175 79.1461 22.1695C79.1461 20.2975 80.1061 19.0975 81.5701 19.0975C83.2021 19.0975 84.0661 20.4895 84.0661 22.1455C84.0661 23.8735 83.2741 25.2175 81.5701 25.2175Z" fill="#AAAAAA"/>
<path d="M95.4368 26.3934C93.7328 26.3934 92.8448 24.9054 92.8448 22.6734C92.8448 20.4414 93.7328 18.9294 95.4368 18.9294C97.1408 18.9294 98.0528 20.4414 98.0528 22.6734C98.0528 24.9054 97.1408 26.3934 95.4368 26.3934ZM95.4608 29.1774C99.4208 29.1774 102.013 26.3694 102.013 22.6734C102.013 18.9774 99.4208 16.1694 95.4608 16.1694C91.5248 16.1694 88.8848 18.9774 88.8848 22.6734C88.8848 26.3694 91.5248 29.1774 95.4608 29.1774Z" fill="#AAAAAA"/>
<path d="M103.155 28.7938H107.067V16.5058H103.155V28.7938ZM103.155 14.8018H107.067V11.6338H103.155V14.8018Z" fill="#AAAAAA"/>
<path d="M108.764 32.8495H112.676V27.5215H112.724C113.492 28.5535 114.62 29.1775 116.204 29.1775C119.42 29.1775 121.556 26.6335 121.556 22.6495C121.556 18.9535 119.564 16.1455 116.3 16.1455C114.62 16.1455 113.42 16.8895 112.58 17.9935H112.508V16.5055H108.764V32.8495ZM115.196 26.1535C113.516 26.1535 112.556 24.7855 112.556 22.7935C112.556 20.8015 113.42 19.2895 115.124 19.2895C116.804 19.2895 117.596 20.6815 117.596 22.7935C117.596 24.8815 116.684 26.1535 115.196 26.1535Z" fill="#AAAAAA"/>
<path d="M127.926 29.1775C131.142 29.1775 133.518 27.7855 133.518 25.0975C133.518 21.9535 130.974 21.4015 128.814 21.0415C127.254 20.7535 125.862 20.6335 125.862 19.7695C125.862 19.0015 126.606 18.6415 127.566 18.6415C128.646 18.6415 129.39 18.9775 129.534 20.0815H133.134C132.942 17.6575 131.07 16.1455 127.59 16.1455C124.686 16.1455 122.286 17.4895 122.286 20.0815C122.286 22.9615 124.566 23.5375 126.702 23.8975C128.334 24.1855 129.822 24.3055 129.822 25.4095C129.822 26.2015 129.078 26.6335 127.902 26.6335C126.606 26.6335 125.79 26.0335 125.646 24.8095H121.95C122.07 27.5215 124.326 29.1775 127.926 29.1775Z" fill="#AAAAAA"/>
<path d="M138.831 29.1534C140.535 29.1534 141.615 28.4814 142.503 27.2814H142.575V28.7934H146.319V16.5054H142.407V23.3694C142.407 24.8334 141.591 25.8414 140.247 25.8414C138.999 25.8414 138.399 25.0974 138.399 23.7534V16.5054H134.511V24.5694C134.511 27.3054 135.999 29.1534 138.831 29.1534Z" fill="#AAAAAA"/>
<path d="M148.021 28.7935H151.933V21.9055C151.933 20.4415 152.653 19.4095 153.877 19.4095C155.053 19.4095 155.605 20.1775 155.605 21.4975V28.7935H159.517V21.9055C159.517 20.4415 160.213 19.4095 161.461 19.4095C162.637 19.4095 163.189 20.1775 163.189 21.4975V28.7935H167.101V20.8015C167.101 18.0415 165.709 16.1455 162.925 16.1455C161.341 16.1455 160.021 16.8175 159.061 18.3055H159.013C158.389 16.9855 157.165 16.1455 155.557 16.1455C153.781 16.1455 152.605 16.9855 151.837 18.2575H151.765V16.5055H148.021V28.7935Z" fill="#AAAAAA"/>
<path fill-rule="evenodd" clip-rule="evenodd" d="M9.15429 3.89132C7.72363 4.89168 6.42993 6.07443 5.30688 7.40585C9.89618 6.97978 15.7267 7.6755 22.4959 11.0601C29.7245 14.6743 35.5453 14.7965 39.5963 14.0151C39.2287 12.9022 38.7659 11.8326 38.2178 10.8158C33.5805 11.3049 27.6355 10.6575 20.7071 7.19343C16.3075 4.99363 12.4293 4.08746 9.15429 3.89132ZM35.5089 6.9601C31.8468 2.86845 26.5249 0.293457 20.6015 0.293457C18.862 0.293457 17.1742 0.515564 15.5652 0.932937C17.7444 1.52754 20.0594 2.39744 22.4959 3.61572C27.5685 6.15198 31.9479 6.96861 35.5089 6.9601ZM40.4624 17.9215C35.5684 18.8879 28.8103 18.6894 20.7071 14.6378C13.1315 10.85 7.10199 10.8977 3.03546 11.8014C2.82556 11.848 2.6206 11.897 2.42059 11.948C1.88818 13.1059 1.4632 14.3235 1.15826 15.5879C1.48395 15.5009 1.82049 15.4182 2.16772 15.341C7.10113 14.2447 14.0716 14.2923 22.4959 18.5045C30.0716 22.2923 36.1011 22.2446 40.1677 21.3409C40.307 21.31 40.4443 21.278 40.5793 21.245C40.5941 20.9297 40.6015 20.6124 40.6015 20.2934C40.6015 19.4909 40.5543 18.6994 40.4624 17.9215ZM39.9263 25.4657C35.0798 26.313 28.5185 25.9878 20.7071 22.0822C13.1315 18.2944 7.10199 18.3421 3.03546 19.2458C2.13281 19.4463 1.3208 19.6906 0.604493 19.9485C0.60254 20.0632 0.601562 20.1782 0.601562 20.2934C0.601562 31.3391 9.55585 40.2934 20.6015 40.2934C29.8586 40.2934 37.6468 34.0043 39.9263 25.4657Z" fill="#202020"/>
</g>
<defs>
<clipPath id="clip0_5_279">
<rect width="167" height="41" fill="white" transform="translate(0.5)"/>
</clipPath>
</defs>
</svg>
