<svg width="161" height="31" viewBox="0 0 161 31" fill="none" xmlns="http://www.w3.org/2000/svg">
<g clip-path="url(#clip0_5_266)">
<path d="M39.0654 1.77441H43.0601V23.5635H49.6331V27.1951H39.0654V1.77441Z" fill="#AAAAAA"/>
<path d="M57.1808 27.5585C55.2198 27.5585 53.7188 27.0017 52.6777 25.888C51.6367 24.7743 51.1162 23.2007 51.1162 21.167V7.80309C51.1162 5.76944 51.6367 4.19578 52.6777 3.08212C53.7188 1.96845 55.2198 1.41162 57.1808 1.41162C59.1418 1.41162 60.6428 1.96845 61.6839 3.08212C62.7249 4.19578 63.2454 5.76944 63.2454 7.80309V21.167C63.2454 23.2007 62.7249 24.7743 61.6839 25.888C60.6428 27.0017 59.1418 27.5585 57.1808 27.5585ZM57.1808 23.927C58.5608 23.927 59.2508 23.0917 59.2508 21.4212V7.54888C59.2508 5.87838 58.5608 5.04313 57.1808 5.04313C55.8008 5.04313 55.1108 5.87838 55.1108 7.54888V21.4212C55.1108 23.0917 55.8008 23.927 57.1808 23.927Z" fill="#AAAAAA"/>
<path d="M71.6129 27.5585C69.6761 27.5585 68.1993 27.0138 67.1824 25.9243C66.1656 24.8107 65.6572 23.2249 65.6572 21.167V7.80309C65.6572 5.74523 66.1656 4.17157 67.1824 3.08212C68.1993 1.96845 69.6761 1.41162 71.6129 1.41162C73.5497 1.41162 75.0265 1.96845 76.0433 3.08212C77.0602 4.17157 77.5686 5.74523 77.5686 7.80309V9.98199H73.7918V7.54888C73.7918 5.87838 73.1018 5.04313 71.7218 5.04313C70.3419 5.04313 69.6519 5.87838 69.6519 7.54888V21.4576C69.6519 23.1039 70.3419 23.927 71.7218 23.927C73.1018 23.927 73.7918 23.1039 73.7918 21.4576V16.4824H71.7945V12.8509H77.5686V21.167C77.5686 23.2249 77.0602 24.8107 76.0433 25.9243C75.0265 27.0138 73.5497 27.5585 71.6129 27.5585Z" fill="#AAAAAA"/>
<path d="M85.9074 27.5585C83.9464 27.5585 82.4454 27.0017 81.4044 25.888C80.3633 24.7743 79.8428 23.2007 79.8428 21.167V7.80309C79.8428 5.76944 80.3633 4.19578 81.4044 3.08212C82.4454 1.96845 83.9464 1.41162 85.9074 1.41162C87.8685 1.41162 89.3695 1.96845 90.4105 3.08212C91.4516 4.19578 91.9721 5.76944 91.9721 7.80309V21.167C91.9721 23.2007 91.4516 24.7743 90.4105 25.888C89.3695 27.0017 87.8685 27.5585 85.9074 27.5585ZM85.9074 23.927C87.2874 23.927 87.9774 23.0917 87.9774 21.4212V7.54888C87.9774 5.87838 87.2874 5.04313 85.9074 5.04313C84.5275 5.04313 83.8375 5.87838 83.8375 7.54888V21.4212C83.8375 23.0917 84.5275 23.927 85.9074 23.927Z" fill="#AAAAAA"/>
<path d="M94.6807 1.77441H98.6754V27.1951H94.6807V1.77441Z" fill="#AAAAAA"/>
<path d="M101.667 1.77441H107.55C109.535 1.77441 111.024 2.30703 112.017 3.37228C113.01 4.43752 113.506 5.99907 113.506 8.05693V10.5627C113.506 12.6206 113.01 14.1821 112.017 15.2474C111.024 16.3126 109.535 16.8452 107.55 16.8452H105.662V27.1951H101.667V1.77441ZM107.55 13.2137C108.204 13.2137 108.688 13.0321 109.003 12.669C109.342 12.3058 109.511 11.6885 109.511 10.8169V7.80273C109.511 6.93116 109.342 6.3138 109.003 5.95065C108.688 5.5875 108.204 5.40593 107.55 5.40593H105.662V13.2137H107.55Z" fill="#AAAAAA"/>
<path d="M121.01 27.5585C119.074 27.5585 117.609 27.0138 116.616 25.9243C115.624 24.8107 115.127 23.2249 115.127 21.167V19.7144H118.904V21.4576C118.904 23.1039 119.594 23.927 120.974 23.927C121.652 23.927 122.16 23.7333 122.499 23.346C122.862 22.9344 123.044 22.2807 123.044 21.3849C123.044 20.3197 122.802 19.3876 122.318 18.5887C121.834 17.7655 120.938 16.785 119.63 15.6471C117.984 14.1945 116.834 12.8872 116.18 11.7251C115.527 10.5388 115.2 9.20727 115.2 7.73046C115.2 5.72102 115.708 4.17157 116.725 3.08212C117.742 1.96845 119.219 1.41162 121.156 1.41162C123.068 1.41162 124.509 1.96845 125.477 3.08212C126.47 4.17157 126.966 5.74523 126.966 7.80309V8.85623H123.189V7.54888C123.189 6.67732 123.02 6.04785 122.681 5.66049C122.342 5.24892 121.846 5.04313 121.192 5.04313C119.86 5.04313 119.195 5.85417 119.195 7.47625C119.195 8.39623 119.437 9.25569 119.921 10.0546C120.429 10.8535 121.337 11.8219 122.645 12.9598C124.315 14.4124 125.465 15.7319 126.095 16.9182C126.724 18.1045 127.039 19.4965 127.039 21.0944C127.039 23.1765 126.518 24.7743 125.477 25.888C124.46 27.0017 122.971 27.5585 121.01 27.5585Z" fill="#AAAAAA"/>
<path d="M135.14 27.5582C133.203 27.5582 131.726 27.0135 130.709 25.924C129.692 24.8104 129.184 23.2246 129.184 21.1667V1.77441H133.179V21.4573C133.179 22.3288 133.348 22.9583 133.687 23.3457C134.05 23.733 134.559 23.9267 135.212 23.9267C135.866 23.9267 136.362 23.733 136.701 23.3457C137.064 22.9583 137.246 22.3288 137.246 21.4573V1.77441H141.095V21.1667C141.095 23.2246 140.587 24.8104 139.57 25.924C138.553 27.0135 137.076 27.5582 135.14 27.5582Z" fill="#AAAAAA"/>
<path d="M143.94 1.77441H149.642L152.184 19.9683H152.256L154.799 1.77441H160.5V27.1951H156.723V7.94799H156.651L153.745 27.1951H150.404L147.499 7.94799H147.427V27.1951H143.94V1.77441Z" fill="#AAAAAA"/>
<path d="M0.5 27.1953C5.41448 27.1953 9.39841 23.2113 9.39841 18.2969C9.39841 13.3824 5.41448 9.39844 0.5 9.39844V15.6273C1.97433 15.6273 3.16951 16.8225 3.16951 18.2969C3.16951 19.7712 1.97433 20.9664 0.5 20.9664V27.1953Z" fill="#AAAAAA"/>
<path d="M30.1614 12.3646C28.6408 11.8829 27.0215 11.623 25.3414 11.623C16.5363 11.623 9.39844 18.761 9.39844 27.566C9.39844 28.4498 9.47036 29.3168 9.60862 30.1614H19.5145C19.1609 29.3686 18.9643 28.4903 18.9643 27.566C18.9643 24.044 21.8194 21.1888 25.3414 21.1888C27.2664 21.1888 28.9921 22.0417 30.1614 23.3902V12.3646Z" fill="#202020"/>
<path d="M2.06445 0.5C2.80219 7.17374 8.46024 12.3646 15.3306 12.3646C22.2009 12.3646 27.859 7.17374 28.5967 0.5H19.0512C18.4619 1.9773 17.0181 3.02121 15.3306 3.02121C13.643 3.02121 12.1993 1.9773 11.6099 0.5H2.06445Z" fill="#AAAAAA"/>
</g>
<defs>
<clipPath id="clip0_5_266">
<rect width="160" height="30" fill="white" transform="translate(0.5 0.5)"/>
</clipPath>
</defs>
</svg>
